# xmcd
#
# Track frame offsets:
#	150
#	19635
#	39325
#	56840
#	75382
#	92055
#	109670
#	128825
#	148357
#	167072
#
# Disc length: 2489 seconds
#
# Revision: 0
# Processed by: cddbd v1.5.2PL0 Copyright (c) Steve Scherf et al.
# Submitted via: EasyCDDAExtractor 12.0.0.1
#
DISCID=7e09b70a
DTITLE=Ednita Nazario - Fuerza De Gravedad
DYEAR=1989
DGENRE=Latin
TTITLE0=Fuerza De Gravedad
TTITLE1=Aprendere
TTITLE2=De Todos Modos
TTITLE3=Operadora
TTITLE4=Lo Mejor De Ti
TTITLE5=Mi Corazon Tiene Mente Propia
TTITLE6=No Te Enamores De Mi
TTITLE7=Contigo, Mi Amor
TTITLE8=Musica Electrica
TTITLE9=Antes Y Despues De Ti
EXTD=
EXTT0=
EXTT1=
EXTT2=
EXTT3=
EXTT4=
EXTT5=
EXTT6=
EXTT7=
EXTT8=
EXTT9=
PLAYORDER=
